<?xml version="1.0" encoding="UTF-8"?>
<svg version="1.1" xmlns="http://www.w3.org/2000/svg" width="512" height="512">
<path d="M0 0 C1.1520858 -0.00538554 2.3041716 -0.01077108 3.4911691 -0.01631981 C7.31300105 -0.03051263 11.13448238 -0.02351702 14.95632935 -0.01637268 C17.71220791 -0.02044103 20.46806911 -0.02894723 23.22393799 -0.03717041 C29.90950702 -0.05429201 36.59498179 -0.0552123 43.28056704 -0.04995751 C48.71921098 -0.04590214 54.15782724 -0.04737552 59.59646988 -0.05270576 C60.37302954 -0.05345419 61.14958919 -0.05420261 61.94968096 -0.05497371 C63.52768906 -0.05650532 65.10569714 -0.05804367 66.68370523 -0.05958868 C81.45361162 -0.0732897 96.22346491 -0.06789294 110.99337007 -0.05640347 C124.47810364 -0.0464736 137.96269995 -0.05941175 151.44741236 -0.08333766 C165.32559289 -0.10777437 179.20370961 -0.11732532 193.08191121 -0.11068493 C200.8606364 -0.10720285 208.63925611 -0.10935762 216.41796494 -0.12693596 C223.03965421 -0.14171531 229.66116369 -0.14221904 236.28284965 -0.12486505 C239.65502792 -0.11639929 243.02662468 -0.11629547 246.3988266 -0.1295166 C272.16456424 -0.22278092 272.16456424 -0.22278092 284.83181763 4.38768005 C285.76508818 4.69842248 286.69835873 5.00916491 287.6599102 5.32932377 C307.16312046 12.01131621 322.22341016 28.70263856 331.14431763 46.70018005 C338.02315014 63.09698251 338.41029828 78.21759271 338.34939575 95.78294373 C338.35482459 98.42429506 338.36180861 101.06560171 338.37063599 103.7069397 C338.38830716 110.10069415 338.38463315 116.49425947 338.37298542 122.88802096 C338.36390841 128.0882486 338.36274541 133.28842368 338.36708069 138.488657 C338.36769362 139.2320833 338.36830655 139.97550959 338.36893806 140.74146396 C338.3702171 142.25223493 338.37151396 143.76300587 338.37282842 145.27377681 C338.38420018 159.39794509 338.37117299 173.52200906 338.34962696 187.64616022 C338.33174795 199.74063496 338.33487328 211.83495611 338.353302 223.9294281 C338.37474998 238.01176343 338.38311349 252.09400771 338.37085295 266.17635709 C338.36957889 267.68028818 338.3683214 269.18421929 338.36708069 270.68815041 C338.36615504 271.79779147 338.36615504 271.79779147 338.36521068 272.92984953 C338.36177037 278.11970021 338.36755729 283.30949267 338.3769989 288.49933434 C338.38826359 294.82970208 338.38508517 301.15987164 338.36387593 307.49021693 C338.35342673 310.71426676 338.35132309 313.93792234 338.36247253 317.16197968 C338.44044271 342.0064869 338.44044271 342.0064869 333.83181763 352.38768005 C333.05451294 354.14144958 333.05451294 354.14144958 332.26150513 355.9306488 C326.03504865 366.52188257 318.06624339 375.07293248 306.83181763 380.38768005 C306.17181763 380.38768005 305.51181763 380.38768005 304.83181763 380.38768005 C304.83181763 402.16768005 304.83181763 423.94768005 304.83181763 446.38768005 C308.13181763 446.71768005 311.43181763 447.04768005 314.83181763 447.38768005 C324.43503441 450.76449746 330.94697574 456.53479945 335.83181763 465.38768005 C339.19096848 473.56351163 339.29224491 484.48096688 336.33181763 492.82518005 C332.19694845 501.44311791 325.61623709 507.68897712 316.83181763 511.38768005 C313.68947514 512.34060875 310.85480767 512.51556242 307.57696247 512.52190113 C306.50659632 512.52635897 305.43623017 512.53081682 304.33342868 512.53540975 C302.57068167 512.5351332 302.57068167 512.5351332 300.77232361 512.53485107 C298.8985878 512.54036611 298.8985878 512.54036611 296.98699874 512.54599255 C293.51717022 512.55600317 290.04735901 512.55972787 286.57751811 512.56238186 C282.83557122 512.56628799 279.09363799 512.57586647 275.35169983 512.58459473 C266.31056656 512.60435584 257.26943219 512.61442729 248.22828272 512.62332252 C243.96625622 512.62770812 239.70423095 512.63307442 235.44220543 512.63831139 C221.26462595 512.6553273 207.08704724 512.66981828 192.90945911 512.67706013 C189.23033968 512.67896992 185.55122024 512.68089026 181.87210083 512.68284607 C180.95771276 512.68332981 180.0433247 512.68381355 179.1012279 512.68431195 C164.31104889 512.69260022 149.52095107 512.71791512 134.73080746 512.75042675 C119.53080032 512.78356545 104.33083432 512.80151524 89.13079089 512.80470437 C80.60291334 512.80686374 72.075154 512.81552748 63.54731178 512.84116554 C56.27916607 512.86296621 49.01116726 512.87087744 41.74299256 512.86119876 C38.04058164 512.85668027 34.33847322 512.85839514 30.63610458 512.87796021 C0.80627158 513.02681356 -25.23168493 507.85584581 -48.16818237 487.38768005 C-48.98802612 486.66193787 -49.80786987 485.93619568 -50.65255737 485.1884613 C-67.06579947 469.76918883 -79.32782935 446.1138583 -80.29698354 423.36424261 C-80.29877211 422.287133 -80.30056068 421.21002339 -80.30240345 420.10027409 C-80.30686129 418.85052266 -80.31131914 417.60077124 -80.31591207 416.31314856 C-80.31582278 414.93410749 -80.31563296 413.55506643 -80.31535339 412.17602539 C-80.31865492 410.70485794 -80.32238109 409.23369138 -80.32649487 407.76252598 C-80.3364903 403.72327647 -80.3402277 399.68404182 -80.34288418 395.64478171 C-80.34679457 391.28667995 -80.35637241 386.92858988 -80.36509705 382.57049561 C-80.38484117 372.04706516 -80.39492526 361.52363378 -80.40382484 351.00018945 C-80.40821127 346.040571 -80.41357717 341.0809536 -80.41881371 336.12133598 C-80.43582426 319.62751392 -80.45031736 303.1336925 -80.45756245 286.63986301 C-80.45947224 282.36154746 -80.46139259 278.08323191 -80.46334839 273.80491638 C-80.46383213 272.74160396 -80.46431587 271.67829154 -80.46481427 270.58275753 C-80.47311062 253.36641267 -80.49844164 236.15013737 -80.53092907 218.93382288 C-80.56403422 201.245475 -80.58201435 183.55716243 -80.58520669 165.86878341 C-80.58736863 155.94260495 -80.59607092 146.01652792 -80.62166786 136.09037971 C-80.64342213 127.63499814 -80.65140209 119.17974266 -80.64170108 110.72433627 C-80.63717 106.4145956 -80.63897274 102.10511483 -80.65846252 97.79541016 C-80.67619299 93.84036345 -80.6750174 89.88576433 -80.65956523 85.93071222 C-80.65720403 84.50936344 -80.66143436 83.08798285 -80.67339388 81.66668243 C-80.7748773 68.79597301 -78.532236 56.59531713 -72.41818237 45.13768005 C-72.07529175 44.47639099 -71.73240112 43.81510193 -71.37911987 43.1337738 C-61.29018941 24.17100304 -45.43897346 10.60381928 -25.16818237 3.38768005 C-16.69166909 1.03561332 -8.77925729 -0.05029195 0 0 Z M16.23806763 99.2978363 C11.63089421 106.1446079 10.72635627 113.22832239 11.83181763 121.38768005 C14.04278598 128.29572785 18.0027005 134.07144227 23.83181763 138.38768005 C32.18056052 142.66873855 40.37951791 142.96369209 49.58377075 142.90525818 C51.0355143 142.91069074 52.48725233 142.91781972 53.9389801 142.92649841 C57.85023939 142.94460023 61.76107257 142.93771928 65.67233849 142.92498207 C69.784469 142.91478566 73.89656541 142.92426605 78.00869751 142.93052673 C84.91155481 142.93778395 91.81424037 142.92826627 98.71707153 142.90916443 C106.67371971 142.88739932 114.62995776 142.89445207 122.58659601 142.91647005 C129.44386865 142.93467922 136.30101852 142.93715554 143.15830755 142.92671537 C147.24254411 142.92051062 151.32658851 142.91956088 155.41081238 142.93286133 C159.25241657 142.94450003 163.09349704 142.93624977 166.93504524 142.9132843 C168.33657529 142.90803964 169.73815017 142.90943736 171.13966179 142.91833496 C180.97062987 142.9749465 189.05813565 141.72358519 197.64431763 136.76268005 C204.52743681 129.28957922 207.27934592 121.84547345 207.16775513 111.8134613 C206.36427126 103.6197944 202.21838323 98.07875161 196.08963013 92.8603363 C188.24640423 87.744599 181.13931923 87.94669865 171.96731567 87.96775818 C170.45542781 87.96041143 168.94354554 87.95182344 167.43167114 87.9420929 C163.3385196 87.91992967 159.2455697 87.91694366 155.1523664 87.91884041 C151.72815738 87.91896037 148.30399067 87.91038556 144.87979347 87.90206289 C136.79647119 87.88284679 128.71325218 87.87993815 120.62991333 87.88670349 C112.30861094 87.89334026 103.98775227 87.87049063 95.66653985 87.83338976 C88.50704012 87.8026342 81.34768269 87.79133914 74.18811828 87.79522657 C69.91878593 87.79728836 65.64979882 87.79190387 61.3805294 87.76733398 C57.36246979 87.74497268 53.34512823 87.74702163 49.32706451 87.76726151 C47.85898842 87.77065529 46.3908631 87.76565327 44.92285347 87.75127792 C32.9440267 87.64214285 23.91498428 89.57494894 16.23806763 99.2978363 Z M16.83181763 190.38768005 C12.22376973 197.76896043 10.8943226 204.72901808 11.83181763 213.38768005 C14.96015846 222.81164456 21.12854655 228.88897135 29.83181763 233.38768005 C32.81597331 234.29233994 35.5295063 234.52797333 38.6411438 234.56468201 C39.5928093 234.57751724 40.54447479 234.59035248 41.52497864 234.60357666 C42.54791519 234.61096359 43.57085175 234.61835052 44.62478638 234.6259613 C46.2156884 234.63806892 46.2156884 234.63806892 47.83872986 234.65042114 C50.08388645 234.66424545 52.32906391 234.67497499 54.57424927 234.68284607 C56.86207264 234.69435733 59.14986934 234.71479543 61.43753052 234.74436951 C64.75013411 234.78719149 68.06193981 234.80323681 71.37478638 234.8134613 C72.38760178 234.83096939 73.40041718 234.84847748 74.44392395 234.86651611 C84.04031476 234.83749593 91.08035777 231.82839984 98.10525513 225.3212738 C103.30051184 219.50305644 105.20551739 212.56083057 105.11697388 204.89549255 C104.38953585 198.49802391 101.51314008 191.82261712 96.83181763 187.38768005 C91.02746109 183.48623447 86.07490282 180.2910668 78.9524231 180.2106781 C77.96064056 180.19784286 76.96885803 180.18500763 75.94702148 180.17178345 C74.87517609 180.16439651 73.80333069 180.15700958 72.69900513 180.1493988 C71.59259674 180.14132706 70.48618835 180.13325531 69.34625244 180.12493896 C67.00096197 180.11109943 64.65565137 180.10037669 62.31033325 180.09251404 C58.74157913 180.07534727 55.17376249 180.0314639 51.60525513 179.98728943 C49.32401192 179.97715819 47.04276086 179.96864344 44.76150513 179.9618988 C43.70180511 179.94439072 42.6421051 179.92688263 41.55029297 179.90884399 C31.75052855 179.93721047 23.42693622 182.86753184 16.83181763 190.38768005 Z M-8.16818237 391.38768005 C-14.49943611 399.72640449 -14.7617451 407.06192848 -14.16818237 417.38768005 C-12.85901165 425.9633488 -8.59354675 433.55182589 -2.02755737 439.2431488 C5.8720832 444.83642578 13.83678438 446.84748558 23.41801453 446.7484436 C24.34042008 446.75100688 25.26282563 446.75357015 26.21318287 446.7562111 C29.28098604 446.76112317 32.34828888 446.7446987 35.41604614 446.72825623 C37.62424203 446.7274094 39.83243876 446.72788619 42.04063416 446.72958374 C48.01932381 446.73044293 53.99783217 446.71282927 59.97647977 446.69186187 C66.23049066 446.67308253 72.48450591 446.67134363 78.73854065 446.66778564 C89.23035601 446.6595268 99.72211545 446.64080008 110.21389771 446.61399841 C121.01695425 446.58643041 131.81999274 446.56521028 142.62307739 446.55247498 C143.62316114 446.55129272 143.62316114 446.55129272 144.6434486 446.55008658 C147.98844474 446.54617126 151.333441 446.54238696 154.67843735 446.53865087 C182.39628759 446.50731021 210.11402362 446.45230266 237.83181763 446.38768005 C237.83181763 426.25768005 237.83181763 406.12768005 237.83181763 385.38768005 C208.55697998 385.3435664 179.28216354 385.3066468 150.00730116 385.28554939 C146.54898562 385.28304806 143.09067016 385.28045941 139.63235474 385.27781677 C138.94388352 385.27729215 138.2554123 385.27676753 137.54607832 385.27622701 C126.40708907 385.2675309 115.26812052 385.25176531 104.12914354 385.23337446 C92.69450427 385.2146533 81.25988177 385.20370829 69.82522672 385.19950306 C63.40467927 385.19689633 56.98417873 385.19077182 50.56364632 385.17621994 C44.51858683 385.16263025 38.47359352 385.15846025 32.4285202 385.16146469 C30.2118055 385.16091515 27.99508855 385.15694602 25.77838707 385.1492691 C22.74676448 385.13928625 19.7153902 385.14172344 16.6837616 385.14717102 C15.81116811 385.14134534 14.93857463 385.13551965 14.03953892 385.12951744 C5.94068281 385.16872369 -1.8403824 385.9227619 -8.16818237 391.38768005 Z " fill="#000000" transform="translate(127.16818237304688,-0.3876800537109375)"/>
</svg>
